<?xml version="1.0" encoding="UTF-8" standalone="no"?>
<!-- Created with Inkscape (http://www.inkscape.org/) -->

<svg
   xmlns:osb="http://www.openswatchbook.org/uri/2009/osb"
   xmlns:dc="http://purl.org/dc/elements/1.1/"
   xmlns:cc="http://creativecommons.org/ns#"
   xmlns:rdf="http://www.w3.org/1999/02/22-rdf-syntax-ns#"
   xmlns:svg="http://www.w3.org/2000/svg"
   xmlns="http://www.w3.org/2000/svg"
   xmlns:sodipodi="http://sodipodi.sourceforge.net/DTD/sodipodi-0.dtd"
   xmlns:inkscape="http://www.inkscape.org/namespaces/inkscape"
   width="210mm"
   height="297mm"
   viewBox="0 0 210 297"
   version="1.1"
   id="svg8"
   sodipodi:docname="whiteLogo.svg"
   inkscape:version="0.92.3 (2405546, 2018-03-11)">
  <defs
     id="defs2">
    <linearGradient
       id="linearGradient4870"
       osb:paint="solid">
      <stop
         style="stop-color:#a0f7da;stop-opacity:1;"
         offset="0"
         id="stop4868" />
    </linearGradient>
    <linearGradient
       id="linearGradient4864"
       osb:paint="solid">
      <stop
         style="stop-color:#212428;stop-opacity:1;"
         offset="0"
         id="stop4862" />
    </linearGradient>
  </defs>
  <sodipodi:namedview
     id="base"
     pagecolor="#ffffff"
     bordercolor="#666666"
     borderopacity="1.0"
     inkscape:pageopacity="0.0"
     inkscape:pageshadow="2"
     inkscape:zoom="1.979899"
     inkscape:cx="223.80508"
     inkscape:cy="732.49236"
     inkscape:document-units="mm"
     inkscape:current-layer="g4055"
     showgrid="false"
     inkscape:window-width="1920"
     inkscape:window-height="1017"
     inkscape:window-x="-8"
     inkscape:window-y="-8"
     inkscape:window-maximized="1" />
  <metadata
     id="metadata5">
    <rdf:RDF>
      <cc:Work
         rdf:about="">
        <dc:format>image/svg+xml</dc:format>
        <dc:type
           rdf:resource="http://purl.org/dc/dcmitype/StillImage" />
        <dc:title />
      </cc:Work>
    </rdf:RDF>
  </metadata>
  <g
     inkscape:label="Layer 1"
     inkscape:groupmode="layer"
     id="layer1">
    <g
       inkscape:groupmode="layer"
       id="layer2"
       inkscape:label="Layer 2"
       style="display:none">
      <rect
         style="opacity:1;fill:#040021;fill-opacity:1;stroke-width:0.26458332"
         id="rect843"
         width="209.77678"
         height="295.95535"
         x="0.37797621"
         y="0.66666633" />
    </g>
    <g
       id="g4055"
       transform="matrix(0.35277779,0,0,0.35277779,-24.822043,14.024002)">
      <path
         d="m 394.87229,632.20256 c -71.59132,31.57917 -198.47204,38.89817 -208.85374,2.74556 43.06741,-51.76786 128.2473,-38.68306 208.85374,-2.74556 z"
         id="shape1"
         inkscape:connector-curvature="0"
         style="fill:#4a4d6d;fill-rule:evenodd;stroke:#000000;stroke-width:0;stroke-linecap:square;stroke-linejoin:bevel;stroke-opacity:0;fill-opacity:1" />
      <path
         d="M 7.85764,0 C 6.72578,7.3296 8.65222,20.5248 7.6843,20.9971 7.3075,21.1435 6.65894,21.2412 6.22082,21.0143 2.1959,17.5815 -0.157738,7.65564 0.00822986,0.83667 -0.150109,0.910731 2.46636,0.631841 7.85764,0 Z"
         transform="matrix(6.318436,0,0,6.318436,249.19599,590.59582)"
         id="shape3"
         inkscape:connector-curvature="0"
         style="fill:#4a4d6d;fill-rule:evenodd;stroke:#000000;stroke-width:0.72000003;stroke-linecap:square;stroke-linejoin:bevel;stroke-opacity:0;fill-opacity:1" />
      <path
         d="M 9.09333,2.69379 C 8.83767,7.73369 7.33312,14.3432 2.32498,18.4246 1.52313,18.796 0.877251,18.6674 0.43526,18.3815 1.68958,11.8623 2.14484,6.05599 0,0.299017 0.3098,-0.498655 3.34091,0.299604 9.09333,2.69379 Z"
         transform="matrix(6.318436,0,0,6.318436,389.86159,612.77104)"
         id="shape2"
         inkscape:connector-curvature="0"
         style="fill:#4a4d6d;fill-rule:evenodd;stroke:#000000;stroke-width:0;stroke-linecap:square;stroke-linejoin:bevel;stroke-opacity:0;fill-opacity:1" />
      <path
         d="M 3.02304,2.96505 C -0.716739,2.02745 0.103258,5.80651 0.026939,7.02951 7.64711,9.04249 14.7056,3.74702 14.2969,0.612512 14.1947,0.190259 13.7908,-0.0607477 13.309,0.0127022 10.387,1.96031 6.76283,3.90264 3.02304,2.96505 Z"
         transform="matrix(2.0229512,5.9858418,-5.9858418,2.0229512,363.58797,594.99385)"
         id="shape4"
         inkscape:connector-curvature="0"
         style="fill:#4a4d6d;fill-rule:evenodd;stroke:#000000;stroke-width:0.72000003;stroke-linecap:square;stroke-linejoin:bevel;stroke-opacity:0;fill-opacity:1" />
      <path
         d="M 46.5686,23.642 C 46.7228,17.3017 47.0323,6.05558 43.7117,0.141472 43.3049,-0.0876536 43.109,-0.00561026 42.8,0.155716 40.1177,4.292 34.7318,7.86207 29.5242,9.66538 28.296,9.93501 25.2238,8.91238 23.1361,9.01099 21.0164,9.11111 18.6162,9.90544 17.8038,9.79561 12.0825,8.80074 6.23598,5.89085 2.31144,1.80746 2.16369,1.64493 1.77615,1.62298 1.5661,1.85278 -0.642374,10.2937 -0.926466,20.2326 3.43068,26.7395 -1.38285,38.3392 -2.00185,48.0395 12.1285,52.2784 10.1738,69.3803 -0.0677458,76.8355 1.07257,99.2369 7.43099,92.1595 21.0467,93.3076 31.9434,98.4589 63.581,112.009 76.2727,96.4609 68.0778,78.7605 47.0137,77.7422 39.4547,66.8767 36.2607,51.1235 47.8761,50.7147 51.0694,39.7002 50.7072,34.8733 49.0459,31.7298 47.6664,27.986 46.5686,23.642 Z"
         transform="matrix(6.318436,0,0,6.318436,179.24159,7.9261189)"
         id="shape11"
         inkscape:connector-curvature="0"
         style="fill:#fdfdff;fill-rule:evenodd;stroke:#000000;stroke-width:0;stroke-linecap:round;stroke-linejoin:round;stroke-opacity:0;fill-opacity:1;opacity:1" />
      <path
         d="m 53.0418,88.1628 c 6.0071,-9.1458 21.2767,-5.5559 34.8361,-3.3956 2.4796,0.2976 4.1398,-0.1249 5.572,-0.9217 C 116.85,71.8455 87.5921,35.372 80.5811,11.8366 74.4519,-2.09989 29.576,-6.12958 16.9246,13.0327 c -12.1983,23.1364 -32.0553,55.337 2.0993,70.6362 2.9789,0.7394 3.3292,1.4474 6.7756,0.9307 11.4728,-2.1314 15.3075,-1.7411 27.2423,3.5632 z"
         transform="matrix(2.4175069,0,0,2.4175069,191.11463,121.86483)"
         id="shape0"
         inkscape:connector-curvature="0"
         style="fill:#4a4d6d;fill-rule:evenodd;stroke:#000000;stroke-width:0;stroke-linecap:square;stroke-linejoin:bevel;stroke-opacity:0;fill-opacity:1" />
      <path
         d="M 10.4664,0.76228 C 1.00696,-2.32034 -1.09139,4.5313 0.467117,10.8471 7.81878,12.8554 11.1205,8.62063 10.4664,0.76228 Z"
         transform="matrix(6.318436,0,0,6.318436,320.68856,161.68359)"
         id="shape5"
         inkscape:connector-curvature="0"
         style="fill:#fdfdff;fill-rule:evenodd;stroke:#b5d9df;stroke-width:0;stroke-linecap:square;stroke-linejoin:bevel;fill-opacity:1" />
      <path
         d="M 1.66999,0 C 8.69022,0.111937 11.0658,6.72495 6.87585,11.5219 0.977113,12.177 -2.1384,5.14276 1.66999,0 Z"
         transform="matrix(6.2956804,-0.53576328,0.53576328,6.2956804,223.80733,161.77566)"
         id="shape6"
         inkscape:connector-curvature="0"
         style="fill:#fdfdff;fill-rule:evenodd;stroke:#000000;stroke-width:0;stroke-linecap:square;stroke-linejoin:bevel;stroke-opacity:0;fill-opacity:1" />
      <path
         d="M 4.37127,0.647967 C 3.00508,-0.10101 1.60816,-0.375651 0,0.788976 0.48104,1.47404 1.61524,2.32976 2.47772,2.56166 2.8935,2.55461 3.90576,1.70544 4.37127,0.647967 Z"
         transform="matrix(6.318436,0,0,6.318436,282.55986,236.46359)"
         id="shape7"
         inkscape:connector-curvature="0"
         style="fill:#f24949;fill-rule:evenodd;stroke:#000000;stroke-width:0.72000003;stroke-linecap:round;stroke-linejoin:round;stroke-opacity:0;fill-opacity:1" />
      <path
         d="M 24.3747,4.40792 C 20.9402,3.20443 3.41635,-0.188416 0,0.00820021"
         transform="matrix(6.318436,0,0,6.318436,113.46215,222.24477)"
         id="shape8"
         inkscape:connector-curvature="0"
         style="fill:#fdfdff;fill-rule:evenodd;stroke:#212428;stroke-width:0;stroke-linecap:square;stroke-linejoin:bevel;fill-opacity:1" />
      <path
         d="M 24.6017,0.979943 C 20.9219,0.548741 4.2061,-0.640644 0,0.444252"
         transform="matrix(6.318436,0,0,6.318436,111.7203,254.98139)"
         id="shape9"
         inkscape:connector-curvature="0"
         style="fill:#fdfdff;fill-rule:evenodd;stroke:#212428;stroke-width:0;stroke-linecap:square;stroke-linejoin:bevel;fill-opacity:1" />
      <path
         d="M 23.711,0 C 19.6572,0.50278 3.23344,2.0242 0,4.33882"
         transform="matrix(6.318436,0,0,6.318436,119.86529,270.48957)"
         id="shape10"
         inkscape:connector-curvature="0"
         style="fill:#fdfdff;fill-rule:evenodd;stroke:#212428;stroke-width:0;stroke-linecap:square;stroke-linejoin:bevel;fill-opacity:1" />
      <path
         d="M 0,4.1681 C 2.57761,3.38873 21.9317,-0.334034 25.558,0.0242172"
         transform="matrix(6.318436,0,0,6.318436,360.41059,223.70161)"
         id="path4026"
         inkscape:connector-curvature="0"
         style="fill:#fdfdff;fill-rule:evenodd;stroke:#212428;stroke-width:0;stroke-linecap:square;stroke-linejoin:bevel;fill-opacity:1" />
      <path
         d="M 0,0 C 3.32758,0.214104 22.458,4.93401 24.0534,6.04194"
         transform="matrix(6.0110749,-1.9466927,1.9466927,6.0110749,365.0126,262.40389)"
         id="shape12"
         inkscape:connector-curvature="0"
         style="fill:#fdfdff;fill-rule:evenodd;stroke:#212428;stroke-width:0;stroke-linecap:square;stroke-linejoin:bevel;fill-opacity:1" />
      <path
         d="M 0,0.0423135 C 2.41442,-0.133963 20.1137,0.201894 21.9811,1.78651"
         transform="matrix(6.318436,0,0,6.318436,370.24347,271.98289)"
         id="shape13"
         inkscape:connector-curvature="0"
         style="fill:#fdfdff;fill-rule:evenodd;stroke:#212428;stroke-width:0;stroke-linecap:square;stroke-linejoin:bevel;fill-opacity:1" />
      <ellipse
         cy="5.6142955"
         cx="4.2454567"
         ry="5.6142955"
         rx="4.2454567"
         transform="matrix(6.318436,0,0,6.318436,327.41688,156.48792)"
         id="shape14"
         style="fill:#4a4d6d;fill-rule:evenodd;stroke:#b5d9df;stroke-width:0;stroke-linecap:square;stroke-linejoin:bevel;fill-opacity:1" />
      <ellipse
         cy="5.7415748"
         cx="3.4337809"
         ry="5.7415748"
         rx="3.4337809"
         transform="matrix(6.318436,0,0,6.318436,239.87362,154.75687)"
         id="shape15"
         style="fill:#4a4d6d;fill-rule:evenodd;stroke:#000000;stroke-width:0;stroke-linecap:square;stroke-linejoin:bevel;fill-opacity:1" />
    </g>
  </g>
</svg>
